<svg xmlns="http://www.w3.org/2000/svg" class="svg-icon" style="width: 1em; height: 1em;vertical-align: middle;fill: currentColor;overflow: hidden;" viewBox="0 0 1024 1024" version="1.1"><path d="M191.940006 1024a128.287928 128.287928 0 0 1-127.968008-127.968008v-767.808048a128.351912 128.351912 0 0 1 127.968008-127.968008h639.84004a128.351912 128.351912 0 0 1 127.968008 127.968008v767.808048a128.287928 128.287928 0 0 1-127.968008 127.968008z m0-127.968008h639.84004v-767.808048H191.940006z m127.968008-127.968008a63.984004 63.984004 0 1 1 0-127.968008h383.904024a63.984004 63.984004 0 1 1 0 127.968008z m0-191.952012a63.984004 63.984004 0 1 1 0-127.968008h383.904024a63.984004 63.984004 0 0 1 0 127.968008z m0-191.952012a63.984004 63.984004 0 1 1 0-127.968008h383.904024a63.984004 63.984004 0 0 1 0 127.968008z" fill="#4f46e5"/></svg>